<svg width="23" height="23" viewBox="0 0 23 23" fill="none" xmlns="http://www.w3.org/2000/svg">
<path d="M16.6319 19.1183C16.5223 19.1187 16.4144 19.0922 16.3174 19.041L11.545 16.5313L6.77155 19.041C6.66031 19.0992 6.53501 19.1252 6.4098 19.116C6.28459 19.1068 6.16444 19.0628 6.0629 18.9889C5.96136 18.9151 5.88247 18.8143 5.83513 18.6981C5.78778 18.5818 5.77387 18.4546 5.79495 18.3308L6.70687 13.0157L2.84358 9.25121C2.75349 9.16347 2.68975 9.05226 2.65958 8.93018C2.6294 8.80809 2.634 8.67999 2.67284 8.56038C2.71168 8.44077 2.78322 8.33441 2.87937 8.25334C2.97551 8.17228 3.09243 8.11974 3.21688 8.10166L8.55405 7.32631L10.9408 2.49002C10.9964 2.3773 11.0825 2.28239 11.1893 2.21603C11.296 2.14967 11.4192 2.1145 11.545 2.1145C11.6707 2.1145 11.7939 2.14967 11.9006 2.21603C12.0074 2.28239 12.0935 2.3773 12.1492 2.49002L14.5358 7.32631L19.8726 8.10166C19.9971 8.11967 20.114 8.17216 20.2102 8.2532C20.3064 8.33423 20.378 8.44058 20.4169 8.56021C20.4558 8.67983 20.4605 8.80796 20.4303 8.93008C20.4002 9.0522 20.3364 9.16344 20.2463 9.25121L16.383 13.0157L17.2949 18.3308C17.3115 18.4275 17.3067 18.5266 17.281 18.6213C17.2553 18.7159 17.2092 18.8038 17.1459 18.8788C17.0827 18.9538 17.0039 19.0141 16.9149 19.0555C16.826 19.0968 16.7291 19.1183 16.631 19.1183H16.6319ZM4.76175 9.23908L7.89954 12.2978C7.97757 12.3739 8.03598 12.4677 8.06978 12.5713C8.10358 12.6749 8.11176 12.7851 8.0936 12.8926L7.35284 17.2114L11.2305 15.1737C11.3274 15.1226 11.4354 15.0958 11.545 15.0958C11.6545 15.0958 11.7625 15.1226 11.8594 15.1737L15.738 17.2127L14.9963 12.8926C14.9779 12.785 14.9858 12.6745 15.0196 12.5706C15.0533 12.4668 15.1118 12.3727 15.1899 12.2965L18.3282 9.23908L13.9918 8.61018C13.8838 8.59447 13.7812 8.55273 13.6928 8.48856C13.6045 8.42439 13.533 8.33972 13.4847 8.24182L11.545 4.3125L9.60567 8.24182C9.55727 8.33977 9.48577 8.42449 9.39733 8.48866C9.3089 8.55283 9.20619 8.59453 9.09806 8.61018L4.76175 9.23908Z" fill="white"/>
</svg>
