<svg width="23" height="23" viewBox="0 0 23 23" fill="none" xmlns="http://www.w3.org/2000/svg">
<path d="M8.98734 8.36963C8.98734 8.36963 5.67586 8.73641 3.46681 8.98163C3.2677 9.00573 3.09164 9.13882 3.02562 9.34107C2.9596 9.54332 3.02562 9.75396 3.17234 9.88704C4.81341 11.3845 7.2792 13.6271 7.2792 13.6271C7.27711 13.6271 6.60224 16.8894 6.15372 19.0659C6.11599 19.2629 6.18725 19.4715 6.35911 19.5962C6.52993 19.7209 6.74999 19.723 6.9229 19.6255C8.8553 18.5273 11.7497 16.8757 11.7497 16.8757C11.7497 16.8757 14.6452 18.5273 16.5744 19.6266C16.7505 19.723 16.9705 19.7209 17.1413 19.5962C17.3132 19.4715 17.3845 19.2629 17.3457 19.067C16.8972 16.8894 16.2233 13.6271 16.2233 13.6271C16.2233 13.6271 18.6891 11.3845 20.3302 9.89019C20.4769 9.75291 20.5419 9.54227 20.4769 9.34107C20.412 9.13987 20.2359 9.00678 20.0368 8.98372C17.8277 8.73641 14.5152 8.36963 14.5152 8.36963C14.5152 8.36963 13.1424 5.33271 12.2276 3.30809C12.1416 3.1268 11.9614 3 11.7497 3C11.538 3 11.3567 3.12785 11.275 3.30809C10.3591 5.33271 8.98734 8.36963 8.98734 8.36963Z" fill="#03DAC6"/>
</svg>
